# Blender v2.70 (sub 2) OBJ File: ''
# www.blender.org
mtllib icosphere.mtl
o Icosphere
v 0.000000 -1.000000 0.000000
v 0.723607 -0.447220 0.525725
v -0.276388 -0.447220 0.850649
v -0.894426 -0.447216 0.000000
v -0.276388 -0.447220 -0.850649
v 0.723607 -0.447220 -0.525725
v 0.276388 0.447220 0.850649
v -0.723607 0.447220 0.525725
v -0.723607 0.447220 -0.525725
v 0.276388 0.447220 -0.850649
v 0.894426 0.447216 0.000000
v 0.000000 1.000000 0.000000
v -0.162456 -0.850654 0.499995
v 0.425323 -0.850654 0.309011
v 0.262869 -0.525738 0.809012
v 0.850648 -0.525736 0.000000
v 0.425323 -0.850654 -0.309011
v -0.525730 -0.850652 0.000000
v -0.688189 -0.525736 0.499997
v -0.162456 -0.850654 -0.499995
v -0.688189 -0.525736 -0.499997
v 0.262869 -0.525738 -0.809012
v 0.951058 0.000000 0.309013
v 0.951058 0.000000 -0.309013
v 0.000000 0.000000 1.000000
v 0.587786 0.000000 0.809017
v -0.951058 0.000000 0.309013
v -0.587786 0.000000 0.809017
v -0.587786 0.000000 -0.809017
v -0.951058 0.000000 -0.309013
v 0.587786 0.000000 -0.809017
v 0.000000 0.000000 -1.000000
v 0.688189 0.525736 0.499997
v -0.262869 0.525738 0.809012
v -0.850648 0.525736 0.000000
v -0.262869 0.525738 -0.809012
v 0.688189 0.525736 -0.499997
v 0.162456 0.850654 0.499995
v 0.525730 0.850652 0.000000
v -0.425323 0.850654 0.309011
v -0.425323 0.850654 -0.309011
v 0.162456 0.850654 -0.499995
vt 0.993094 0.044633
vt 1.182837 0.188349
vt 1.012164 0.220451
vt 0.205712 0.361374
vt 0.182837 0.188349
vt 0.302829 0.305648
vt 0.844769 0.199633
vt 0.647021 0.147283
vt 1.394514 0.138073
vt 0.266057 0.493541
vt 0.014969 0.396603
vt 0.107934 0.356550
vt 0.066907 0.539971
vt 0.825352 0.373391
vt 0.921647 0.363687
vt 0.865495 0.531146
vt 0.625323 0.321356
vt 0.730263 0.318231
vt 0.666924 0.479338
vt 0.410045 0.313270
vt 0.518733 0.279677
vt 0.466020 0.456003
vt 0.166924 0.520662
vt 1.014969 0.396603
vt 1.066907 0.539971
vt 0.966020 0.543997
vt 0.766057 0.506459
vt 0.566907 0.460029
vt 0.365495 0.468854
vt 0.125323 0.678644
vt 0.230263 0.681769
vt 0.147021 0.852717
vt 0.910045 0.686730
vt 1.018733 0.720323
vt 0.894514 0.861927
vt 0.705712 0.638626
vt 0.802829 0.694352
vt 0.682837 0.811651
vt 0.514969 0.603397
vt 0.607934 0.643450
vt 0.512164 0.779549
vt 0.325352 0.626609
vt 0.421647 0.636313
vt 0.344769 0.800367
vt 0.012164 0.220451
vt 0.394514 0.138073
vt 0.018733 0.720323
vt 0.493094 0.955367
vt 1.147021 0.852717
vn 0.000000 -1.000000 0.000000
vn 0.425306 -0.850642 0.309000
vn -0.162450 -0.850642 0.499985
vn 0.723594 -0.447188 0.525712
vn 0.850642 -0.525712 0.000000
vn -0.525712 -0.850642 0.000000
vn -0.162450 -0.850642 -0.499985
vn 0.425306 -0.850642 -0.309000
vn 0.951048 0.000000 0.309000
vn -0.276376 -0.447218 0.850642
vn 0.262856 -0.525712 0.808985
vn 0.000000 0.000000 1.000000
vn -0.894406 -0.447188 0.000000
vn -0.688162 -0.525712 0.499985
vn -0.951048 0.000000 0.309000
vn -0.276376 -0.447218 -0.850642
vn -0.688162 -0.525712 -0.499985
vn -0.587756 0.000000 -0.809015
vn 0.723594 -0.447188 -0.525712
vn 0.262856 -0.525712 -0.808985
vn 0.587756 0.000000 -0.809015
vn 0.587756 0.000000 0.809015
vn -0.587756 0.000000 0.809015
vn -0.951048 0.000000 -0.309000
vn 0.000000 0.000000 -1.000000
vn 0.951048 0.000000 -0.309000
vn 0.276376 0.447218 0.850642
vn 0.688162 0.525712 0.499985
vn 0.162450 0.850642 0.499985
vn -0.723594 0.447188 0.525712
vn -0.262856 0.525712 0.808985
vn -0.425306 0.850642 0.309000
vn -0.723594 0.447188 -0.525712
vn -0.850642 0.525712 0.000000
vn -0.425306 0.850642 -0.309000
vn 0.276376 0.447218 -0.850642
vn -0.262856 0.525712 -0.808985
vn 0.162450 0.850642 -0.499985
vn 0.894406 0.447188 0.000000
vn 0.688162 0.525712 -0.499985
vn 0.525712 0.850642 0.000000
vn 0.000000 1.000000 0.000000
usemtl None
s 1
f 1/1/1 14/2/2 13/3/3
f 2/4/4 14/5/2 16/6/5
f 1/1/1 13/3/3 18/7/6
f 1/1/1 18/7/6 20/8/7
f 1/1/1 20/8/7 17/9/8
f 2/4/4 16/6/5 23/10/9
f 3/11/10 15/12/11 25/13/12
f 4/14/13 19/15/14 27/16/15
f 5/17/16 21/18/17 29/19/18
f 6/20/19 22/21/20 31/22/21
f 2/4/4 23/10/9 26/23/22
f 3/24/10 25/25/12 28/26/23
f 4/14/13 27/16/15 30/27/24
f 5/17/16 29/19/18 32/28/25
f 6/20/19 31/22/21 24/29/26
f 7/30/27 33/31/28 38/32/29
f 8/33/30 34/34/31 40/35/32
f 9/36/33 35/37/34 41/38/35
f 10/39/36 36/40/37 42/41/38
f 11/42/39 37/43/40 39/44/41
f 13/45/3 15/12/11 3/11/10
f 13/45/3 14/5/2 15/12/11
f 14/5/2 2/4/4 15/12/11
f 16/6/5 17/46/8 6/20/19
f 16/6/5 14/5/2 17/46/8
f 14/2/2 1/1/1 17/9/8
f 18/7/6 19/15/14 4/14/13
f 18/7/6 13/3/3 19/15/14
f 13/3/3 3/24/10 19/15/14
f 20/8/7 21/18/17 5/17/16
f 20/8/7 18/7/6 21/18/17
f 18/7/6 4/14/13 21/18/17
f 17/46/8 22/21/20 6/20/19
f 17/46/8 20/8/7 22/21/20
f 20/8/7 5/17/16 22/21/20
f 23/10/9 24/29/26 11/42/39
f 23/10/9 16/6/5 24/29/26
f 16/6/5 6/20/19 24/29/26
f 25/13/12 26/23/22 7/30/27
f 25/13/12 15/12/11 26/23/22
f 15/12/11 2/4/4 26/23/22
f 27/16/15 28/26/23 8/33/30
f 27/16/15 19/15/14 28/26/23
f 19/15/14 3/24/10 28/26/23
f 29/19/18 30/27/24 9/36/33
f 29/19/18 21/18/17 30/27/24
f 21/18/17 4/14/13 30/27/24
f 31/22/21 32/28/25 10/39/36
f 31/22/21 22/21/20 32/28/25
f 22/21/20 5/17/16 32/28/25
f 26/23/22 33/31/28 7/30/27
f 26/23/22 23/10/9 33/31/28
f 23/10/9 11/42/39 33/31/28
f 28/26/23 34/34/31 8/33/30
f 28/26/23 25/25/12 34/34/31
f 25/13/12 7/30/27 34/47/31
f 30/27/24 35/37/34 9/36/33
f 30/27/24 27/16/15 35/37/34
f 27/16/15 8/33/30 35/37/34
f 32/28/25 36/40/37 10/39/36
f 32/28/25 29/19/18 36/40/37
f 29/19/18 9/36/33 36/40/37
f 24/29/26 37/43/40 11/42/39
f 24/29/26 31/22/21 37/43/40
f 31/22/21 10/39/36 37/43/40
f 38/32/29 39/44/41 12/48/42
f 38/32/29 33/31/28 39/44/41
f 33/31/28 11/42/39 39/44/41
f 40/35/32 38/49/29 12/48/42
f 40/35/32 34/34/31 38/49/29
f 34/47/31 7/30/27 38/32/29
f 41/38/35 40/35/32 12/48/42
f 41/38/35 35/37/34 40/35/32
f 35/37/34 8/33/30 40/35/32
f 42/41/38 41/38/35 12/48/42
f 42/41/38 36/40/37 41/38/35
f 36/40/37 9/36/33 41/38/35
f 39/44/41 42/41/38 12/48/42
f 39/44/41 37/43/40 42/41/38
f 37/43/40 10/39/36 42/41/38
